<?xml version="1.0" encoding="UTF-8"?>
<svg id="Layer_2" data-name="Layer 2" xmlns="http://www.w3.org/2000/svg" viewBox="0 0 366.3 294.9">
  <defs>
    <style>
      .cls-1 {
        stroke: #1f2a42;
        stroke-miterlimit: 10;
        stroke-width: 5px;
      }

      .cls-1, .cls-2 {
        fill: none;
      }

      .cls-2, .cls-3, .cls-4 {
        stroke-width: 0px;
      }

      .cls-3 {
        fill: #fff;
      }

      .cls-4 {
        fill: #33a7ff;
      }
    </style>
  </defs>
  <g id="Layer_1-2" data-name="Layer 1">
    <polygon class="cls-1" points="224.76 92.03 205.42 92.03 255.88 24.75 306.34 92.03 286.99 92.03 286.99 276.13 224.76 276.13 224.76 92.03"/>
    <line class="cls-1" x1="295.97" y1="286.96" x2="31.67" y2="286.96"/>
    <rect class="cls-1" x="48.21" y="158.65" width="62.46" height="117.48"/>
    <rect class="cls-1" x="139" y="122.51" width="62.46" height="153.62"/>
    <g>
      <circle class="cls-4" cx="299.59" cy="245.02" r="43.7"/>
      <path class="cls-3" d="m281.8,245.12c0-.74.22-1.38.67-1.92.45-.53,1.13-.8,2.05-.8h3.5v-7.73c0-2.05.31-4,.93-5.85.62-1.85,1.56-3.46,2.8-4.85,1.24-1.39,2.8-2.48,4.68-3.29,1.88-.81,4.08-1.21,6.62-1.21,1.72,0,3.28.22,4.67.67,1.39.45,2.62,1.05,3.7,1.82,1.08.76,2.02,1.66,2.82,2.7.8,1.04,1.49,2.16,2.08,3.36l-3.24,2.06c-.76.39-1.49.57-2.18.52-.69-.04-1.32-.39-1.88-1.05-.41-.48-.82-.92-1.23-1.33-.4-.4-.84-.75-1.29-1.05-.46-.29-.97-.52-1.52-.67-.56-.15-1.2-.23-1.92-.23-2.25,0-3.93.74-5.04,2.21-1.11,1.47-1.67,3.52-1.67,6.14v7.76h13.4v3.21c0,.52-.22,1-.66,1.44-.44.44-.98.66-1.64.66h-11.1v6.35c0,1.44-.27,2.72-.8,3.85-.53,1.12-1.26,2.17-2.18,3.13.79-.17,1.57-.31,2.36-.41s1.59-.15,2.42-.15h19.19v3.41c0,.39-.08.8-.25,1.21-.16.41-.4.79-.7,1.13-.31.34-.68.61-1.11.82-.44.21-.92.31-1.44.31h-31.38v-5.08c.72-.17,1.42-.42,2.1-.74.68-.32,1.27-.72,1.79-1.21.51-.49.92-1.07,1.23-1.74.31-.67.46-1.45.46-2.34v-8.55h-6.22v-2.59Z"/>
    </g>
    <path class="cls-4" d="m90.6,137.11s69.75-34.45,76.64-103.34l-12.92-3.44,34.45-20.67,16.65,35.02-13.49-2.87c-22.96,75.7-101.33,95.3-101.33,95.3"/>
    <rect class="cls-2" width="366.3" height="294.9"/>
  </g>
</svg>