<?xml version="1.0" encoding="UTF-8"?>
<svg id="Layer_2" data-name="Layer 2" xmlns="http://www.w3.org/2000/svg" viewBox="0 0 366.3 294.9">
  <defs>
    <style>
      .cls-1 {
        stroke: #1f2a42;
        stroke-miterlimit: 10;
        stroke-width: 5px;
      }

      .cls-1, .cls-2 {
        fill: none;
      }

      .cls-2, .cls-3, .cls-4, .cls-5 {
        stroke-width: 0px;
      }

      .cls-3 {
        fill: #fff;
      }

      .cls-4 {
        fill: #33a7ff;
      }

      .cls-5 {
        fill: #1f2a42;
      }
    </style>
  </defs>
  <g id="Layer_1-2" data-name="Layer 1">
    <g>
      <g>
        <circle class="cls-4" cx="183.08" cy="98.95" r="71.51"/>
        <path class="cls-3" d="m153.97,99.11c0-1.21.37-2.26,1.1-3.13.73-.87,1.85-1.31,3.35-1.31h5.73v-12.65c0-3.36.51-6.55,1.53-9.57,1.02-3.02,2.54-5.66,4.58-7.93,2.04-2.27,4.59-4.06,7.66-5.39,3.07-1.32,6.68-1.98,10.82-1.98,2.82,0,5.37.37,7.64,1.1,2.27.73,4.29,1.72,6.06,2.97,1.77,1.25,3.3,2.72,4.61,4.42s2.44,3.53,3.4,5.49l-5.3,3.38c-1.25.64-2.44.93-3.56.86-1.13-.07-2.15-.64-3.08-1.71-.68-.79-1.35-1.51-2.01-2.17-.66-.66-1.37-1.23-2.12-1.71-.75-.48-1.58-.85-2.49-1.1-.91-.25-1.96-.37-3.13-.37-3.68,0-6.43,1.21-8.25,3.62-1.82,2.41-2.73,5.76-2.73,10.05v12.7h21.92v5.25c0,.86-.36,1.64-1.07,2.36-.71.72-1.61,1.07-2.68,1.07h-18.17v10.4c0,2.36-.44,4.46-1.31,6.3-.88,1.84-2.06,3.55-3.56,5.12,1.29-.29,2.57-.51,3.86-.67s2.61-.24,3.97-.24h31.4v5.57c0,.64-.13,1.3-.4,1.98-.27.68-.65,1.3-1.15,1.85-.5.55-1.11,1-1.82,1.34-.71.34-1.5.51-2.36.51h-51.34v-8.31c1.18-.29,2.32-.69,3.43-1.21,1.11-.52,2.08-1.18,2.92-1.98.84-.8,1.51-1.75,2.01-2.84.5-1.09.75-2.37.75-3.83v-13.99h-10.18v-4.23Z"/>
        <path class="cls-1" d="m358.74,188.3c-44.03-11.37-76.92-56.53-76.92-110.52,0,62.56-44.17,113.28-98.67,113.28s-98.67-50.72-98.67-113.28c0,53.98-32.89,99.15-76.92,110.52"/>
        <rect class="cls-5" x="7.56" y="222.01" width="351.18" height="12.44"/>
        <line class="cls-1" x1="281.82" y1="77.79" x2="281.82" y2="267.45"/>
        <line class="cls-1" x1="84.48" y1="77.79" x2="84.48" y2="267.45"/>
        <line class="cls-1" x1="35.15" y1="222.01" x2="35.15" y2="175.91"/>
        <line class="cls-1" x1="331.15" y1="222.01" x2="331.15" y2="175.91"/>
        <line class="cls-1" x1="183.15" y1="222.01" x2="183.15" y2="191.06"/>
        <line class="cls-1" x1="133.82" y1="222.01" x2="133.82" y2="175.91"/>
        <line class="cls-1" x1="232.48" y1="222.01" x2="232.48" y2="175.91"/>
      </g>
      <rect class="cls-2" width="366.3" height="294.9"/>
    </g>
  </g>
</svg>