<?xml version="1.0" encoding="UTF-8"?>
<svg id="Layer_2" data-name="Layer 2" xmlns="http://www.w3.org/2000/svg" viewBox="0 0 366.3 294.9">
  <defs>
    <style>
      .cls-1 {
        stroke: #1f2a42;
        stroke-miterlimit: 10;
        stroke-width: 5px;
      }

      .cls-1, .cls-2 {
        fill: none;
      }

      .cls-2, .cls-3, .cls-4, .cls-5 {
        stroke-width: 0px;
      }

      .cls-3 {
        fill: #fff;
      }

      .cls-4 {
        fill: #33a7ff;
      }

      .cls-5 {
        fill: #1f2a42;
      }
    </style>
  </defs>
  <g id="Layer_1-2" data-name="Layer 1">
    <g>
      <polyline class="cls-1" points="344.88 281.12 28.88 281.12 28.88 37.7"/>
      <g>
        <circle class="cls-4" cx="204.55" cy="46.2" r="36.54"/>
        <path class="cls-3" d="m189.68,46.28c0-.62.19-1.15.56-1.6.37-.45.94-.67,1.71-.67h2.93v-6.46c0-1.72.26-3.35.78-4.89.52-1.54,1.3-2.89,2.34-4.05,1.04-1.16,2.35-2.08,3.92-2.75,1.57-.68,3.41-1.01,5.53-1.01,1.44,0,2.74.19,3.9.56,1.16.37,2.19.88,3.09,1.52.9.64,1.69,1.39,2.35,2.26s1.25,1.8,1.74,2.81l-2.71,1.73c-.64.33-1.25.47-1.82.44-.58-.04-1.1-.33-1.57-.88-.35-.4-.69-.77-1.03-1.11-.34-.34-.7-.63-1.08-.88-.38-.25-.81-.43-1.27-.56-.47-.13-1-.19-1.6-.19-1.88,0-3.29.62-4.22,1.85-.93,1.23-1.4,2.94-1.4,5.13v6.49h11.2v2.68c0,.44-.18.84-.55,1.2-.37.37-.82.55-1.37.55h-9.28v5.31c0,1.2-.22,2.28-.67,3.22-.45.94-1.05,1.81-1.82,2.61.66-.15,1.31-.26,1.97-.34s1.33-.12,2.03-.12h16.05v2.85c0,.33-.07.67-.21,1.01-.14.35-.33.66-.59.94-.26.28-.57.51-.93.68-.37.17-.77.26-1.2.26h-26.23v-4.24c.6-.15,1.19-.35,1.75-.62.57-.26,1.06-.6,1.49-1.01.43-.41.77-.89,1.03-1.45.26-.56.38-1.21.38-1.96v-7.15h-5.2v-2.16Z"/>
        <g>
          <circle class="cls-5" cx="204.55" cy="102.53" r="6.39"/>
          <circle class="cls-5" cx="204.55" cy="264.23" r="6.39"/>
          <circle class="cls-5" cx="204.55" cy="241.13" r="6.39"/>
          <circle class="cls-5" cx="204.55" cy="218.03" r="6.39"/>
          <circle class="cls-5" cx="204.55" cy="194.93" r="6.39"/>
          <circle class="cls-5" cx="204.55" cy="171.83" r="6.39"/>
          <circle class="cls-5" cx="204.55" cy="148.73" r="6.39"/>
          <circle class="cls-5" cx="204.55" cy="125.63" r="6.39"/>
        </g>
      </g>
      <g>
        <polyline class="cls-1" points="28.88 200.7 116.98 130.19 204.55 171.83 279.25 118.53"/>
        <polygon class="cls-5" points="307.99 98.03 279.3 143.47 277.11 120.07 255.69 110.38 307.99 98.03"/>
      </g>
      <rect class="cls-2" width="366.3" height="294.9"/>
    </g>
  </g>
</svg>