<?xml version="1.0" encoding="UTF-8"?>
<svg id="Layer_2" data-name="Layer 2" xmlns="http://www.w3.org/2000/svg" viewBox="0 0 366.3 294.9">
  <defs>
    <style>
      .cls-1 {
        stroke: #1f2a42;
        stroke-miterlimit: 10;
        stroke-width: 5px;
      }

      .cls-1, .cls-2 {
        fill: none;
      }

      .cls-2, .cls-3, .cls-4, .cls-5 {
        stroke-width: 0px;
      }

      .cls-3 {
        fill: #fff;
      }

      .cls-4 {
        fill: #33a7ff;
      }

      .cls-5 {
        fill: #1f2a42;
      }
    </style>
  </defs>
  <g id="Layer_1-2" data-name="Layer 1">
    <g>
      <g>
        <path class="cls-1" d="m81.33,205.42h-18.45v-47.3c0-11.6,9.4-21,21-21h52.46c5.56,0,10.69,2.95,13.5,7.75l15.89,27.19h17.27v21.98h-33.37l-15.67-31.7c-.2-.41-.82-.27-.82.19v119.05h-51.03v-120.13"/>
        <line class="cls-1" x1="107.48" y1="207.68" x2="107.48" y2="281.58"/>
        <circle class="cls-1" cx="108.81" cy="110.52" r="23.55"/>
      </g>
      <g>
        <path class="cls-1" d="m284.97,205.42h18.45s0-47.3,0-47.3c0-11.6-9.4-21-21-21h-52.46c-5.56,0-10.69,2.95-13.5,7.75l-15.89,27.19h-17.27s0,21.98,0,21.98h33.37s15.67-31.7,15.67-31.7c.2-.41.82-.27.82.19v119.05s51.03,0,51.03,0v-120.13"/>
        <line class="cls-1" x1="258.82" y1="207.68" x2="258.82" y2="281.58"/>
        <circle class="cls-1" cx="257.49" cy="110.52" r="23.55"/>
      </g>
      <circle class="cls-4" cx="183.25" cy="54.33" r="43.96"/>
      <path class="cls-3" d="m165.36,54.43c0-.75.22-1.39.68-1.93.45-.54,1.14-.81,2.06-.81h3.53v-7.78c0-2.06.31-4.02.94-5.88.63-1.86,1.56-3.48,2.82-4.88,1.25-1.39,2.82-2.5,4.71-3.31,1.89-.81,4.11-1.22,6.65-1.22,1.73,0,3.3.23,4.69.68,1.39.45,2.64,1.06,3.72,1.83,1.09.77,2.03,1.67,2.83,2.72s1.5,2.17,2.09,3.38l-3.26,2.08c-.77.4-1.5.57-2.19.53-.69-.04-1.32-.4-1.89-1.05-.42-.48-.83-.93-1.24-1.33-.41-.41-.84-.76-1.3-1.05-.46-.3-.97-.52-1.53-.68-.56-.15-1.2-.23-1.93-.23-2.26,0-3.95.74-5.07,2.22-1.12,1.48-1.68,3.54-1.68,6.18v7.81h13.47v3.23c0,.53-.22,1.01-.66,1.45-.44.44-.99.66-1.65.66h-11.17v6.39c0,1.45-.27,2.74-.81,3.87-.54,1.13-1.27,2.18-2.19,3.15.79-.18,1.58-.31,2.37-.41s1.6-.15,2.44-.15h19.31v3.43c0,.4-.08.8-.25,1.22-.16.42-.4.8-.71,1.14-.31.34-.68.62-1.12.82-.44.21-.92.31-1.45.31h-31.56v-5.11c.72-.18,1.43-.42,2.11-.74.68-.32,1.28-.73,1.8-1.22.52-.49.93-1.08,1.24-1.75.31-.67.46-1.45.46-2.36v-8.6h-6.26v-2.6Z"/>
      <circle class="cls-5" cx="108.81" cy="52.71" r="6.39"/>
      <circle class="cls-5" cx="85.84" cy="52.71" r="6.39"/>
      <circle class="cls-5" cx="62.88" cy="52.71" r="6.39"/>
      <circle class="cls-5" cx="62.88" cy="98.64" r="6.39"/>
      <circle class="cls-5" cx="62.88" cy="75.68" r="6.39"/>
      <circle class="cls-5" cx="257.49" cy="52.71" r="6.39"/>
      <circle class="cls-5" cx="280.46" cy="52.71" r="6.39"/>
      <circle class="cls-5" cx="303.42" cy="52.71" r="6.39"/>
      <circle class="cls-5" cx="303.42" cy="98.64" r="6.39"/>
      <circle class="cls-5" cx="303.42" cy="75.68" r="6.39"/>
    </g>
    <rect class="cls-2" width="366.3" height="294.9"/>
  </g>
</svg>