<?xml version="1.0" encoding="UTF-8"?>
<svg id="Layer_2" data-name="Layer 2" xmlns="http://www.w3.org/2000/svg" viewBox="0 0 100.5 100.5">
  <defs>
    <style>
      .cls-1 {
        fill: #ff8400;
        stroke-width: 0px;
      }
    </style>
  </defs>
  <g id="Layer_1-2" data-name="Layer 1">
    <g>
      <path class="cls-1" d="m60.54,20.53h-20.51V0h20.51v20.53Zm-20.01-.5h19.51V.5h-19.51v19.53Z"/>
      <path class="cls-1" d="m56.52,16.51h-12.48V4.02h12.48v12.49Zm-11.98-.5h11.48V4.52h-11.48v11.49Z"/>
    </g>
    <g>
      <path class="cls-1" d="m40.52,40.49H.06V0h40.46v40.49Zm-39.96-.5h39.46V.5H.56v39.49Z"/>
      <path class="cls-1" d="m40.53,60.51h-20.51v-20.53h20.51v20.53Zm-20.01-.5h19.51v-19.53h-19.51v19.53Z"/>
      <path class="cls-1" d="m36.51,56.5h-12.48v-12.49h12.48v12.49Zm-11.98-.5h11.48v-11.49h-11.48v11.49Z"/>
      <path class="cls-1" d="m36.51,36.47H4.08V4.02h32.43v32.45Zm-31.93-.5h31.43V4.52H4.58v31.45Z"/>
    </g>
    <g>
      <polygon class="cls-1" points="20.51 80.47 .06 80.47 .06 79.97 20.01 79.97 20.01 40.49 .06 40.49 .06 39.99 20.51 39.99 20.51 80.47"/>
      <path class="cls-1" d="m20.51,100.5H0v-20.53h20.51v20.53Zm-20.01-.5h19.51v-19.53H.5v19.53Z"/>
      <path class="cls-1" d="m16.5,96.48H4.01v-12.49h12.48v12.49Zm-11.98-.5h11.48v-11.49H4.51v11.49Z"/>
      <polygon class="cls-1" points="16.5 76.46 .06 76.46 .06 75.96 16 75.96 16 44.5 .06 44.5 .06 44 16.5 44 16.5 76.46"/>
    </g>
    <g>
      <polygon class="cls-1" points="100.5 20.53 60.04 20.53 60.04 0 60.54 0 60.54 20.03 100 20.03 100 0 100.5 0 100.5 20.53"/>
      <path class="cls-1" d="m100.5,40.55h-20.51v-20.53h20.51v20.53Zm-20.01-.5h19.51v-19.53h-19.51v19.53Z"/>
      <path class="cls-1" d="m96.48,36.54h-12.48v-12.49h12.48v12.49Zm-11.98-.5h11.48v-11.49h-11.48v11.49Z"/>
      <polygon class="cls-1" points="96.48 16.51 64.05 16.51 64.05 0 64.55 0 64.55 16.01 95.98 16.01 95.98 0 96.48 0 96.48 16.51"/>
    </g>
    <g>
      <path class="cls-1" d="m80.49,60.51h-40.46V20.03h40.46v40.49Zm-39.96-.5h39.46V20.53h-39.46v39.49Z"/>
      <path class="cls-1" d="m80.49,80.54h-20.51v-20.53h20.51v20.53Zm-20.01-.5h19.51v-19.53h-19.51v19.53Z"/>
      <path class="cls-1" d="m76.47,76.52h-12.48v-12.49h12.48v12.49Zm-11.98-.5h11.48v-11.49h-11.48v11.49Z"/>
      <path class="cls-1" d="m76.47,56.5h-32.43V24.04h32.43v32.45Zm-31.93-.5h31.43v-31.45h-31.43v31.45Z"/>
    </g>
    <g>
      <polygon class="cls-1" points="100.5 80.54 79.99 80.54 79.99 40.05 100.5 40.05 100.5 40.55 80.49 40.55 80.49 80.04 100.5 80.04 100.5 80.54"/>
      <polygon class="cls-1" points="100.5 76.52 83.97 76.52 83.97 44.07 100.5 44.07 100.5 44.57 84.47 44.57 84.47 76.02 100.5 76.02 100.5 76.52"/>
    </g>
    <path class="cls-1" d="m60.47,100.5H20.01v-40.49h40.46v40.49Zm-39.96-.5h39.46v-39.49H20.51v39.49Zm35.95-3.52H24.03v-32.45h32.43v32.45Zm-31.93-.5h31.43v-31.45h-31.43v31.45Z"/>
    <g>
      <polygon class="cls-1" points="60.47 100.5 59.97 100.5 59.97 80.04 100.43 80.04 100.43 80.54 60.47 80.54 60.47 100.5"/>
      <polygon class="cls-1" points="96.42 100.5 95.92 100.5 95.92 84.53 64.49 84.53 64.49 100.5 63.99 100.5 63.99 84.03 96.42 84.03 96.42 100.5"/>
    </g>
    <path class="cls-1" d="m56.46,96.48H24.03v-32.45h32.43v32.45Zm-31.93-.5h31.43v-31.45h-31.43v31.45Z"/>
    <g>
      <path class="cls-1" d="m60.54,20.53h-20.51V0h20.51v20.53Zm-20.01-.5h19.51V.5h-19.51v19.53Z"/>
      <path class="cls-1" d="m56.52,16.51h-12.48V4.02h12.48v12.49Zm-11.98-.5h11.48V4.52h-11.48v11.49Z"/>
    </g>
    <g>
      <path class="cls-1" d="m40.52,40.49H.06V0h40.46v40.49Zm-39.96-.5h39.46V.5H.56v39.49Z"/>
      <path class="cls-1" d="m40.53,60.51h-20.51v-20.53h20.51v20.53Zm-20.01-.5h19.51v-19.53h-19.51v19.53Z"/>
      <path class="cls-1" d="m36.51,56.5h-12.48v-12.49h12.48v12.49Zm-11.98-.5h11.48v-11.49h-11.48v11.49Z"/>
      <path class="cls-1" d="m36.51,36.47H4.08V4.02h32.43v32.45Zm-31.93-.5h31.43V4.52H4.58v31.45Z"/>
    </g>
    <g>
      <polygon class="cls-1" points="20.51 80.47 .06 80.47 .06 79.97 20.01 79.97 20.01 40.49 .06 40.49 .06 39.99 20.51 39.99 20.51 80.47"/>
      <path class="cls-1" d="m20.51,100.5H0v-20.53h20.51v20.53Zm-20.01-.5h19.51v-19.53H.5v19.53Z"/>
      <path class="cls-1" d="m16.5,96.48H4.01v-12.49h12.48v12.49Zm-11.98-.5h11.48v-11.49H4.51v11.49Z"/>
      <polygon class="cls-1" points="16.5 76.46 .06 76.46 .06 75.96 16 75.96 16 44.5 .06 44.5 .06 44 16.5 44 16.5 76.46"/>
    </g>
    <g>
      <polygon class="cls-1" points="100.5 20.53 60.04 20.53 60.04 0 60.54 0 60.54 20.03 100 20.03 100 0 100.5 0 100.5 20.53"/>
      <path class="cls-1" d="m100.5,40.55h-20.51v-20.53h20.51v20.53Zm-20.01-.5h19.51v-19.53h-19.51v19.53Z"/>
      <path class="cls-1" d="m96.48,36.54h-12.48v-12.49h12.48v12.49Zm-11.98-.5h11.48v-11.49h-11.48v11.49Z"/>
      <polygon class="cls-1" points="96.48 16.51 64.05 16.51 64.05 0 64.55 0 64.55 16.01 95.98 16.01 95.98 0 96.48 0 96.48 16.51"/>
    </g>
    <g>
      <path class="cls-1" d="m80.49,60.51h-40.46V20.03h40.46v40.49Zm-39.96-.5h39.46V20.53h-39.46v39.49Z"/>
      <path class="cls-1" d="m80.49,80.54h-20.51v-20.53h20.51v20.53Zm-20.01-.5h19.51v-19.53h-19.51v19.53Z"/>
      <path class="cls-1" d="m76.47,76.52h-12.48v-12.49h12.48v12.49Zm-11.98-.5h11.48v-11.49h-11.48v11.49Z"/>
      <path class="cls-1" d="m76.47,56.5h-32.43V24.04h32.43v32.45Zm-31.93-.5h31.43v-31.45h-31.43v31.45Z"/>
    </g>
    <g>
      <polygon class="cls-1" points="100.5 80.54 79.99 80.54 79.99 40.05 100.5 40.05 100.5 40.55 80.49 40.55 80.49 80.04 100.5 80.04 100.5 80.54"/>
      <polygon class="cls-1" points="100.5 76.52 83.97 76.52 83.97 44.07 100.5 44.07 100.5 44.57 84.47 44.57 84.47 76.02 100.5 76.02 100.5 76.52"/>
    </g>
    <path class="cls-1" d="m60.47,100.5H20.01v-40.49h40.46v40.49Zm-39.96-.5h39.46v-39.49H20.51v39.49Zm35.95-3.52H24.03v-32.45h32.43v32.45Zm-31.93-.5h31.43v-31.45h-31.43v31.45Z"/>
    <g>
      <polygon class="cls-1" points="60.47 100.5 59.97 100.5 59.97 80.04 100.43 80.04 100.43 80.54 60.47 80.54 60.47 100.5"/>
      <polygon class="cls-1" points="96.42 100.5 95.92 100.5 95.92 84.53 64.49 84.53 64.49 100.5 63.99 100.5 63.99 84.03 96.42 84.03 96.42 100.5"/>
    </g>
    <path class="cls-1" d="m56.46,96.48H24.03v-32.45h32.43v32.45Zm-31.93-.5h31.43v-31.45h-31.43v31.45Z"/>
  </g>
</svg>